<svg width="26" height="20" viewBox="0 0 26 20" fill="none" xmlns="http://www.w3.org/2000/svg">
<path d="M2.375 0C1.33984 0 0.5 0.839844 0.5 1.875V14.375C0.5 15.4102 1.33984 16.25 2.375 16.25H3C3 18.3203 4.67969 20 6.75 20C8.82031 20 10.5 18.3203 10.5 16.25H15.5C15.5 18.3203 17.1797 20 19.25 20C21.3203 20 23 18.3203 23 16.25H24.25C24.9414 16.25 25.5 15.6914 25.5 15C25.5 14.3086 24.9414 13.75 24.25 13.75V11.25V10V9.26953C24.25 8.60547 23.9883 7.96875 23.5195 7.5L20.5 4.48047C20.0312 4.01172 19.3945 3.75 18.7305 3.75H16.75V1.875C16.75 0.839844 15.9102 0 14.875 0H2.375ZM16.75 6.25H18.7305L21.75 9.26953V10H16.75V6.25ZM4.875 16.25C4.875 15.7527 5.07254 15.2758 5.42417 14.9242C5.77581 14.5725 6.25272 14.375 6.75 14.375C7.24728 14.375 7.72419 14.5725 8.07583 14.9242C8.42746 15.2758 8.625 15.7527 8.625 16.25C8.625 16.7473 8.42746 17.2242 8.07583 17.5758C7.72419 17.9275 7.24728 18.125 6.75 18.125C6.25272 18.125 5.77581 17.9275 5.42417 17.5758C5.07254 17.2242 4.875 16.7473 4.875 16.25ZM19.25 14.375C19.7473 14.375 20.2242 14.5725 20.5758 14.9242C20.9275 15.2758 21.125 15.7527 21.125 16.25C21.125 16.7473 20.9275 17.2242 20.5758 17.5758C20.2242 17.9275 19.7473 18.125 19.25 18.125C18.7527 18.125 18.2758 17.9275 17.9242 17.5758C17.5725 17.2242 17.375 16.7473 17.375 16.25C17.375 15.7527 17.5725 15.2758 17.9242 14.9242C18.2758 14.5725 18.7527 14.375 19.25 14.375Z" fill="#17D5D5"/>
</svg>
